<svg xmlns="http://www.w3.org/2000/svg" xmlns:xlink="http://www.w3.org/1999/xlink" width="347" height="229" viewBox="0 0 347 229">
  <defs>
    <style>
      .cls-1 {
        fill: rgba(29,42,67,-0.82);
      }

      .cls-2 {
        fill: #fff;
      }

      .cls-3, .cls-6, .cls-9 {
        fill: #23233c;
      }

      .cls-3 {
        font-size: 8px;
      }

      .cls-3, .cls-6, .cls-8 {
        font-family: SegoeUI-Bold, Segoe UI;
        font-weight: 700;
      }

      .cls-4 {
        fill: #dcebf5;
        fill-rule: evenodd;
      }

      .cls-5, .cls-8 {
        fill: #6cc57c;
      }

      .cls-6, .cls-8 {
        font-size: 9px;
      }

      .cls-7 {
        fill: #404040;
      }

      .cls-9 {
        font-size: 4px;
        font-family: SegoeUI, Segoe UI;
      }

      .cls-10 {
        font-family: GoogleSans-Regular, Google Sans;
      }

      .cls-11 {
        fill: #7f8da0;
      }

      .cls-12 {
        filter: url(#arrow-right-solid);
      }

      .cls-13 {
        filter: url(#Ellipse_12);
      }

      .cls-14 {
        filter: url(#Rectangle_32);
      }
    </style>
    <filter id="Rectangle_32" x="18" y="17" width="272" height="164" filterUnits="userSpaceOnUse">
      <feOffset dy="10" input="SourceAlpha"/>
      <feGaussianBlur stdDeviation="10" result="blur"/>
      <feFlood flood-color="#19166d" flood-opacity="0.071"/>
      <feComposite operator="in" in2="blur"/>
      <feComposite in="SourceGraphic"/>
    </filter>
    <filter id="Ellipse_12" x="0" y="79" width="114" height="115" filterUnits="userSpaceOnUse">
      <feOffset dy="5" input="SourceAlpha"/>
      <feGaussianBlur stdDeviation="15" result="blur-2"/>
      <feFlood flood-color="#081551" flood-opacity="0.31"/>
      <feComposite operator="in" in2="blur-2"/>
      <feComposite in="SourceGraphic"/>
    </filter>
    <filter id="arrow-right-solid" x="43.883" y="121.427" width="26.586" height="26.369" filterUnits="userSpaceOnUse">
      <feOffset dy="3" input="SourceAlpha"/>
      <feGaussianBlur stdDeviation="3" result="blur-3"/>
      <feFlood flood-color="#fff" flood-opacity="0.588"/>
      <feComposite operator="in" in2="blur-3"/>
      <feComposite in="SourceGraphic"/>
    </filter>
  </defs>
  <g id="Group_16141" data-name="Group 16141" transform="translate(44.886 37.005)">
    <rect id="Rectangle_105" data-name="Rectangle 105" class="cls-1" width="212" height="103" rx="10" transform="translate(27.114 25.995)"/>
    <g id="Group_16140" data-name="Group 16140" transform="translate(0)">
      <g id="Group_16126" data-name="Group 16126" transform="translate(0 0)">
        <g class="cls-14" transform="matrix(1, 0, 0, 1, -44.89, -37.01)">
          <rect id="Rectangle_32-2" data-name="Rectangle 32" class="cls-2" width="212" height="104" rx="10" transform="translate(48 37)"/>
        </g>
        <g id="Pie_Chart" data-name="Pie Chart" transform="translate(166.127 38.111)">
          <text id="_520_Kcal" data-name="520 Kcal" class="cls-3" transform="translate(7.987 7.883)"><tspan x="-8.006" y="0">520 </tspan><tspan x="-7.766" y="9">Kcal</tspan></text>
        </g>
        <g id="Group_16108" data-name="Group 16108" transform="translate(151.335 26.897)">
          <path id="Path_1942" data-name="Path 1942" class="cls-4" d="M21.994-98.013A21.994,21.994,0,0,1,0-120.006,21.994,21.994,0,0,1,21.994-142a21.994,21.994,0,0,1,21.994,21.994A21.994,21.994,0,0,1,21.994-98.013Zm0-3.1a18.9,18.9,0,0,0,18.9-18.9,18.9,18.9,0,0,0-18.9-18.9,18.9,18.9,0,0,0-18.9,18.9A18.9,18.9,0,0,0,21.994-101.111Z" transform="translate(0 142)"/>
          <path id="Intersection_1" data-name="Intersection 1" class="cls-5" d="M24.343,37.959A18.9,18.9,0,1,0,1.853,7.717L0,5.225A21.995,21.995,0,1,1,26.2,40.451Z" transform="translate(7.761 0)"/>
        </g>
        <text id="Results_of_the_week" data-name="Results of the week" class="cls-6" transform="translate(64.114 32.995)"><tspan x="-40.95" y="0">Results of the week</tspan></text>
        <g id="Group_16109" data-name="Group 16109" transform="translate(0 82.086)">
          <g class="cls-13" transform="matrix(1, 0, 0, 1, -44.89, -119.09)">
            <ellipse id="Ellipse_12-2" data-name="Ellipse 12" class="cls-2" cx="12" cy="12.5" rx="12" ry="12.5" transform="translate(45 119)"/>
          </g>
          <g class="cls-12" transform="matrix(1, 0, 0, 1, -44.89, -119.09)">
            <path id="arrow-right-solid-2" data-name="arrow-right-solid" class="cls-7" d="M3.651,38.211l.425-.425a.458.458,0,0,1,.65,0l3.725,3.724a.458.458,0,0,1,0,.65L4.726,45.884a.458.458,0,0,1-.65,0l-.425-.425a.46.46,0,0,1,.008-.657l2.309-2.2H.46a.459.459,0,0,1-.46-.46v-.613a.459.459,0,0,1,.46-.46H5.968l-2.309-2.2A.457.457,0,0,1,3.651,38.211Z" transform="translate(52.88 89.78)"/>
          </g>
        </g>
        <text id="_-4kg" data-name="-4kg" class="cls-8" transform="translate(32.114 62.995)"><tspan x="-9.646" y="0">-4kg</tspan></text>
        <text id="Level_8" data-name="Level 8" class="cls-8" transform="translate(94.114 62.995)"><tspan x="-14.673" y="0">Level 8</tspan></text>
        <text id="you_have_lost" data-name="you have lost" class="cls-9" transform="translate(34.114 47.995)"><tspan x="-11.703" y="0">you have lost</tspan></text>
        <text id="you_level_up_" data-name="you level up
" class="cls-9" transform="translate(90.114 47.995)"><tspan x="-10.693" y="0">you level up</tspan><tspan class="cls-10"><tspan x="0" y="6"></tspan></tspan></text>
        <text id="Never_give_up_know_more" data-name="Never give up, know more" class="cls-9" transform="translate(154.114 90.995)"><tspan x="-23.219" y="0">Never give up,</tspan><tspan class="cls-5" y="0" xml:space="preserve"> know more</tspan></text>
        <circle id="Ellipse_55" data-name="Ellipse 55" class="cls-11" cx="1.5" cy="1.5" r="1.5" transform="translate(191.114 11.995)"/>
        <circle id="Ellipse_56" data-name="Ellipse 56" class="cls-11" cx="1.5" cy="1.5" r="1.5" transform="translate(196.114 11.995)"/>
      </g>
    </g>
  </g>
</svg>
