<svg xmlns="http://www.w3.org/2000/svg" width="80.532" height="75.809" viewBox="0 0 80.532 75.809">
  <g id="Group_16135" data-name="Group 16135" transform="translate(1.7 1.7)">
    <g id="Group_1" data-name="Group 1" transform="translate(0 0)">
      <path id="Path_1" data-name="Path 1" d="M99.879,89.032a18.977,18.977,0,0,0-5.116,13.38c0,10.626-4.329,11.806-11.413,11.806" transform="translate(-44.784 -41.808)" fill="none" stroke="#6cc57c" stroke-miterlimit="10" stroke-width="3.4"/>
      <path id="Path_2" data-name="Path 2" d="M97.518,81.006s-4.723,5.509-14.168,5.509" transform="translate(-44.784 -45.588)" fill="none" stroke="#6cc57c" stroke-miterlimit="10" stroke-width="3.4"/>
      <path id="Path_3" data-name="Path 3" d="M101.562,92.339s-9.839.393-12.593-8.658" transform="translate(-42.138 -44.328)" fill="none" stroke="#6cc57c" stroke-miterlimit="10" stroke-width="3.4"/>
      <path id="Path_4" data-name="Path 4" d="M95.642,114.255a8.836,8.836,0,0,0,13.177-11,11.814,11.814,0,0,0,1.489.106,11.609,11.609,0,0,0,11.609-11.61c0-7.149-4.329-11.216-8.527-12.134a12.989,12.989,0,0,0-6.165,0,18.813,18.813,0,0,0,1.312-5.772A10.2,10.2,0,0,0,93.6,64.782,10.622,10.622,0,0,0,83.35,56.927" transform="translate(-44.784 -56.927)" fill="none" stroke="#6cc57c" stroke-miterlimit="10" stroke-width="3.4"/>
      <path id="Path_5" data-name="Path 5" d="M72.114,89.032a18.977,18.977,0,0,1,5.116,13.38c0,10.626,4.329,11.806,11.411,11.806" transform="translate(-50.075 -41.808)" fill="none" stroke="#6cc57c" stroke-miterlimit="10" stroke-width="3.4"/>
      <path id="Path_6" data-name="Path 6" d="M73.719,81.006s4.722,5.509,14.166,5.509" transform="translate(-49.319 -45.588)" fill="none" stroke="#6cc57c" stroke-miterlimit="10" stroke-width="3.4"/>
      <path id="Path_7" data-name="Path 7" d="M69.171,92.339s9.838.393,12.593-8.658" transform="translate(-51.461 -44.328)" fill="none" stroke="#6cc57c" stroke-miterlimit="10" stroke-width="3.4"/>
      <path id="Path_8" data-name="Path 8" d="M83.4,114.255a8.835,8.835,0,0,1-13.175-11,11.815,11.815,0,0,1-1.489.106,11.61,11.61,0,0,1-11.61-11.61c0-7.149,4.329-11.216,8.527-12.134a12.994,12.994,0,0,1,6.166,0,18.813,18.813,0,0,1-1.312-5.772,10.2,10.2,0,0,1,14.937-9.067A10.622,10.622,0,0,1,95.7,56.927" transform="translate(-57.131 -56.927)" fill="none" stroke="#6cc57c" stroke-miterlimit="10" stroke-width="3.4"/>
      <line id="Line_1" data-name="Line 1" y2="9.773" transform="translate(33.188 40.271)" fill="none" stroke="#6cc57c" stroke-miterlimit="10" stroke-width="3.4"/>
      <line id="Line_2" data-name="Line 2" y2="12.331" transform="translate(38.435 40.993)" fill="none" stroke="#6cc57c" stroke-miterlimit="10" stroke-width="3.4"/>
      <line id="Line_3" data-name="Line 3" y2="9.248" transform="translate(43.879 40.599)" fill="none" stroke="#6cc57c" stroke-miterlimit="10" stroke-width="3.4"/>
    </g>
    <path id="Path_9" data-name="Path 9" d="M83.6,69.868a5.51,5.51,0,0,0-9.537,5.522" transform="translate(-49.505 -52.127)" fill="none" stroke="#6cc57c" stroke-miterlimit="10" stroke-width="3.4"/>
    <path id="Path_10" data-name="Path 10" d="M95.831,80.023A2.647,2.647,0,0,0,93.8,75.329a2.621,2.621,0,0,0-1.261.544" transform="translate(-40.454 -48.274)" fill="none" stroke="#6cc57c" stroke-miterlimit="10" stroke-width="3.4"/>
  </g>
</svg>
