<svg xmlns="http://www.w3.org/2000/svg" width="32.473" height="32.466" viewBox="0 0 32.473 32.466">
  <path id="Icon_awesome-instagram" data-name="Icon awesome-instagram" d="M16.235,10.147a8.324,8.324,0,1,0,8.324,8.324A8.311,8.311,0,0,0,16.235,10.147Zm0,13.735a5.412,5.412,0,1,1,5.412-5.412,5.421,5.421,0,0,1-5.412,5.412ZM26.84,9.806A1.941,1.941,0,1,1,24.9,7.865,1.937,1.937,0,0,1,26.84,9.806Zm5.513,1.97a9.608,9.608,0,0,0-2.622-6.8,9.671,9.671,0,0,0-6.8-2.622c-2.68-.152-10.714-.152-13.395,0a9.657,9.657,0,0,0-6.8,2.615,9.64,9.64,0,0,0-2.622,6.8c-.152,2.68-.152,10.714,0,13.395a9.608,9.608,0,0,0,2.622,6.8,9.683,9.683,0,0,0,6.8,2.622c2.68.152,10.714.152,13.395,0a9.608,9.608,0,0,0,6.8-2.622,9.671,9.671,0,0,0,2.622-6.8c.152-2.68.152-10.707,0-13.388ZM28.891,28.04A5.479,5.479,0,0,1,25.8,31.127c-2.137.848-7.208.652-9.57.652s-7.44.188-9.57-.652A5.479,5.479,0,0,1,3.579,28.04c-.848-2.137-.652-7.208-.652-9.57s-.188-7.44.652-9.57A5.479,5.479,0,0,1,6.665,5.815c2.137-.848,7.208-.652,9.57-.652s7.44-.188,9.57.652A5.479,5.479,0,0,1,28.891,8.9c.848,2.137.652,7.208.652,9.57S29.738,25.911,28.891,28.04Z" transform="translate(0.005 -2.238)" fill="#929fc7"/>
</svg>
